<?xml version="1.0" encoding="UTF-8"?>
<!DOCTYPE svg PUBLIC "-//W3C//DTD SVG 1.1//EN" "http://www.w3.org/Graphics/SVG/1.1/DTD/svg11.dtd">
<svg version="1.2" width="117.09mm" height="39.19mm" viewBox="0 0 11709 3919" preserveAspectRatio="xMidYMid" fill-rule="evenodd" stroke-width="28.222" stroke-linejoin="round" xmlns="http://www.w3.org/2000/svg" xmlns:ooo="http://xml.openoffice.org/svg/export" xmlns:xlink="http://www.w3.org/1999/xlink" xmlns:presentation="http://sun.com/xmlns/staroffice/presentation" xmlns:smil="http://www.w3.org/2001/SMIL20/" xmlns:anim="urn:oasis:names:tc:opendocument:xmlns:animation:1.0" xml:space="preserve">
 <defs class="ClipPathGroup">
  <clipPath id="presentation_clip_path" clipPathUnits="userSpaceOnUse">
   <rect x="0" y="0" width="11709" height="3919"/>
  </clipPath>
  <clipPath id="presentation_clip_path_shrink" clipPathUnits="userSpaceOnUse">
   <rect x="11" y="3" width="11686" height="3912"/>
  </clipPath>
 </defs>
 <defs class="TextShapeIndex">
  <g ooo:slide="id1" ooo:id-list="id3 id4 id5 id6 id7"/>
 </defs>
 <defs class="EmbeddedBulletChars">
  <g id="bullet-char-template-57356" transform="scale(0.00048828125,-0.00048828125)">
   <path d="M 580,1141 L 1163,571 580,0 -4,571 580,1141 Z"/>
  </g>
  <g id="bullet-char-template-57354" transform="scale(0.00048828125,-0.00048828125)">
   <path d="M 8,1128 L 1137,1128 1137,0 8,0 8,1128 Z"/>
  </g>
  <g id="bullet-char-template-10146" transform="scale(0.00048828125,-0.00048828125)">
   <path d="M 174,0 L 602,739 174,1481 1456,739 174,0 Z M 1358,739 L 309,1346 659,739 1358,739 Z"/>
  </g>
  <g id="bullet-char-template-10132" transform="scale(0.00048828125,-0.00048828125)">
   <path d="M 2015,739 L 1276,0 717,0 1260,543 174,543 174,936 1260,936 717,1481 1274,1481 2015,739 Z"/>
  </g>
  <g id="bullet-char-template-10007" transform="scale(0.00048828125,-0.00048828125)">
   <path d="M 0,-2 C -7,14 -16,27 -25,37 L 356,567 C 262,823 215,952 215,954 215,979 228,992 255,992 264,992 276,990 289,987 310,991 331,999 354,1012 L 381,999 492,748 772,1049 836,1024 860,1049 C 881,1039 901,1025 922,1006 886,937 835,863 770,784 769,783 710,716 594,584 L 774,223 C 774,196 753,168 711,139 L 727,119 C 717,90 699,76 672,76 641,76 570,178 457,381 L 164,-76 C 142,-110 111,-127 72,-127 30,-127 9,-110 8,-76 1,-67 -2,-52 -2,-32 -2,-23 -1,-13 0,-2 Z"/>
  </g>
  <g id="bullet-char-template-10004" transform="scale(0.00048828125,-0.00048828125)">
   <path d="M 285,-33 C 182,-33 111,30 74,156 52,228 41,333 41,471 41,549 55,616 82,672 116,743 169,778 240,778 293,778 328,747 346,684 L 369,508 C 377,444 397,411 428,410 L 1163,1116 C 1174,1127 1196,1133 1229,1133 1271,1133 1292,1118 1292,1087 L 1292,965 C 1292,929 1282,901 1262,881 L 442,47 C 390,-6 338,-33 285,-33 Z"/>
  </g>
  <g id="bullet-char-template-9679" transform="scale(0.00048828125,-0.00048828125)">
   <path d="M 813,0 C 632,0 489,54 383,161 276,268 223,411 223,592 223,773 276,916 383,1023 489,1130 632,1184 813,1184 992,1184 1136,1130 1245,1023 1353,916 1407,772 1407,592 1407,412 1353,268 1245,161 1136,54 992,0 813,0 Z"/>
  </g>
  <g id="bullet-char-template-8226" transform="scale(0.00048828125,-0.00048828125)">
   <path d="M 346,457 C 273,457 209,483 155,535 101,586 74,649 74,723 74,796 101,859 155,911 209,963 273,989 346,989 419,989 480,963 531,910 582,859 608,796 608,723 608,648 583,586 532,535 482,483 420,457 346,457 Z"/>
  </g>
  <g id="bullet-char-template-8211" transform="scale(0.00048828125,-0.00048828125)">
   <path d="M -4,459 L 1135,459 1135,606 -4,606 -4,459 Z"/>
  </g>
  <g id="bullet-char-template-61548" transform="scale(0.00048828125,-0.00048828125)">
   <path d="M 173,740 C 173,903 231,1043 346,1159 462,1274 601,1332 765,1332 928,1332 1067,1274 1183,1159 1299,1043 1357,903 1357,740 1357,577 1299,437 1183,322 1067,206 928,148 765,148 601,148 462,206 346,322 231,437 173,577 173,740 Z"/>
  </g>
 </defs>
 <g>
  <g id="id2" class="Master_Slide">
   <g id="bg-id2" class="Background"/>
   <g id="bo-id2" class="BackgroundObjects"/>
  </g>
 </g>
 <g class="SlideGroup">
  <g>
   <g id="container-id1">
    <g id="id1" class="Slide" clip-path="url(#presentation_clip_path)">
     <g class="Page">
      <g class="com.sun.star.drawing.ClosedBezierShape">
       <g id="id3">
        <rect class="BoundingBox" stroke="none" fill="none" x="2185" y="2675" width="5800" height="847"/>
        <path fill="rgb(35,31,32)" stroke="none" d="M 2330,3326 C 2425,3326 2462,3248 2462,3248 L 2462,3316 2502,3316 2502,2929 2458,2929 2458,3199 C 2458,3199 2424,3283 2339,3283 2274,3283 2229,3249 2229,3170 L 2229,2929 2185,2929 2185,3177 C 2185,3282 2257,3326 2330,3326 Z M 2847,2919 C 2752,2919 2715,3000 2715,3000 L 2715,2929 2675,2929 2675,3316 2719,3316 2719,3050 C 2719,3050 2753,2963 2838,2963 2902,2963 2948,2997 2948,3077 L 2948,3316 2992,3316 2992,3070 C 2992,2965 2920,2919 2847,2919 Z M 3510,3316 L 3510,2675 3467,2675 3467,2995 C 3456,2980 3412,2919 3327,2919 3219,2919 3135,3003 3135,3123 3135,3243 3219,3326 3327,3326 3425,3326 3470,3245 3470,3245 L 3470,3316 3510,3316 Z M 3466,3193 C 3466,3193 3423,3283 3327,3283 3241,3283 3180,3213 3180,3123 3180,3033 3241,2963 3327,2963 3424,2963 3466,3053 3466,3053 L 3466,3193 Z M 4035,2765 L 4315,2765 4315,2723 3991,2723 3991,3316 4035,3316 4035,3033 4298,3033 4298,2992 4035,2992 4035,2765 Z M 4614,2919 C 4499,2919 4417,3011 4417,3123 4417,3235 4499,3326 4614,3326 4729,3326 4810,3235 4810,3123 4810,3011 4729,2919 4614,2919 Z M 4614,3283 C 4517,3283 4463,3210 4463,3123 4463,3036 4517,2963 4614,2963 4710,2963 4765,3036 4765,3123 4765,3210 4710,3283 4614,3283 Z M 5105,2919 C 5025,2919 4992,2993 4992,2993 L 4992,2929 4952,2929 4952,3316 4997,3316 4997,3038 C 4997,3038 5028,2963 5095,2963 5130,2963 5146,2973 5146,2973 L 5165,2929 C 5165,2929 5141,2919 5105,2919 Z M 5242,3244 C 5242,3244 5293,3326 5407,3326 5480,3326 5554,3289 5554,3215 5554,3146 5496,3121 5424,3105 5359,3090 5308,3077 5308,3029 5308,2989 5347,2963 5400,2963 5469,2963 5509,3006 5509,3006 L 5538,2974 C 5538,2974 5490,2919 5400,2919 5315,2919 5263,2974 5263,3029 5263,3094 5316,3126 5400,3144 5460,3158 5508,3171 5508,3215 5508,3266 5449,3283 5407,3283 5316,3283 5277,3215 5277,3215 L 5242,3244 Z M 5869,3283 C 5777,3283 5716,3209 5716,3123 5716,3038 5777,2963 5869,2963 5951,2963 5992,3021 5992,3021 L 6024,2993 C 6024,2993 5970,2919 5869,2919 5754,2919 5670,3011 5670,3123 5670,3235 5754,3326 5869,3326 5974,3326 6028,3248 6028,3248 L 5997,3219 C 5997,3219 5955,3283 5869,3283 Z M 6216,2994 L 6216,2675 6172,2675 6172,3316 6216,3316 6216,3050 C 6216,3050 6250,2963 6335,2963 6398,2963 6444,2997 6444,3077 L 6444,3316 6488,3316 6488,3070 C 6488,2965 6415,2919 6344,2919 6253,2919 6216,2994 6216,2994 Z M 6806,3326 C 6901,3326 6938,3248 6938,3248 L 6938,3316 6978,3316 6978,2929 6934,2929 6934,3199 C 6934,3199 6900,3283 6814,3283 6750,3283 6705,3249 6705,3170 L 6705,2929 6661,2929 6661,3177 C 6661,3282 6732,3326 6806,3326 Z M 7322,2919 C 7227,2919 7190,3000 7190,3000 L 7190,2929 7150,2929 7150,3316 7194,3316 7194,3050 C 7194,3050 7228,2963 7314,2963 7376,2963 7423,2997 7423,3077 L 7423,3316 7467,3316 7467,3070 C 7467,2965 7394,2919 7322,2919 Z M 7945,2929 L 7945,3001 C 7945,3001 7902,2919 7801,2919 7694,2919 7609,3003 7609,3123 7609,3243 7694,3326 7801,3326 7886,3326 7928,3270 7940,3252 L 7940,3327 C 7940,3414 7895,3478 7796,3478 7697,3478 7648,3411 7648,3411 L 7619,3442 C 7619,3442 7682,3521 7796,3521 7908,3521 7984,3447 7984,3326 L 7984,2929 7945,2929 Z M 7940,3193 C 7940,3193 7901,3283 7801,3283 7714,3283 7655,3213 7655,3123 7655,3033 7714,2963 7801,2963 7901,2963 7940,3053 7940,3053 L 7940,3193 Z"/>
       </g>
      </g>
      <g class="com.sun.star.drawing.ClosedBezierShape">
       <g id="id4">
        <rect class="BoundingBox" stroke="none" fill="none" x="2199" y="1607" width="8883" height="857"/>
        <path fill="rgb(35,31,32)" stroke="none" d="M 2199,2258 L 2381,2258 C 2495,2258 2561,2192 2561,2096 2561,1979 2468,1947 2458,1945 2468,1940 2528,1906 2528,1817 2528,1724 2461,1664 2360,1664 L 2199,1664 2199,2258 Z M 2243,2217 L 2243,1972 2389,1972 C 2480,1972 2515,2038 2515,2096 2515,2155 2481,2217 2377,2217 L 2243,2217 Z M 2243,1932 L 2243,1705 2356,1705 C 2437,1705 2483,1751 2483,1817 2483,1881 2448,1932 2367,1932 L 2243,1932 Z M 2715,2258 L 2759,2258 2759,1871 2715,1871 2715,2258 Z M 2703,1746 C 2703,1764 2718,1779 2737,1779 2755,1779 2771,1764 2771,1746 2771,1727 2755,1712 2737,1712 2718,1712 2703,1727 2703,1746 Z M 2957,2258 L 3001,2258 3001,1617 2958,1617 2957,2258 Z M 3532,2258 L 3532,1617 3488,1617 3488,1936 C 3478,1921 3433,1861 3349,1861 3241,1861 3157,1944 3157,2064 3157,2185 3241,2268 3349,2268 3447,2268 3492,2187 3492,2187 L 3492,2258 3532,2258 Z M 3488,2134 C 3488,2134 3445,2225 3349,2225 3262,2225 3202,2155 3202,2064 3202,1974 3262,1904 3349,1904 3446,1904 3488,1994 3488,1994 L 3488,2134 Z M 3863,2268 C 3957,2268 3995,2189 3995,2189 L 3995,2258 4035,2258 4035,1871 3991,1871 3991,2140 C 3991,2140 3957,2225 3871,2225 3807,2225 3762,2191 3762,2110 L 3762,1871 3718,1871 3718,2117 C 3718,2223 3789,2268 3863,2268 Z M 4379,1861 C 4284,1861 4247,1941 4247,1941 L 4247,1871 4207,1871 4207,2258 4251,2258 4251,1990 C 4251,1990 4285,1904 4371,1904 4433,1904 4481,1938 4481,2017 L 4481,2258 4525,2258 4525,2011 C 4525,1906 4452,1861 4379,1861 Z M 5002,1871 L 5002,1942 C 5002,1942 4960,1861 4859,1861 4752,1861 4667,1944 4667,2064 4667,2185 4752,2268 4859,2268 4944,2268 4986,2211 4998,2194 L 4998,2269 C 4998,2355 4952,2420 4853,2420 4755,2420 4706,2353 4706,2353 L 4676,2384 C 4676,2384 4740,2463 4853,2463 4966,2463 5042,2388 5042,2267 L 5042,1871 5002,1871 Z M 4998,2134 C 4998,2134 4958,2225 4859,2225 4772,2225 4713,2155 4713,2064 4713,1974 4772,1904 4859,1904 4958,1904 4998,1994 4998,1994 L 4998,2134 Z M 5181,2382 L 5220,2396 5292,2198 5251,2183 5181,2382 Z M 6463,1664 L 6416,1664 6245,2150 6091,1664 6046,1664 5895,2150 5722,1664 5675,1664 5893,2275 6069,1737 6244,2275 6463,1664 Z M 6590,2258 L 6634,2258 6634,1871 6590,1871 6590,2258 Z M 6578,1746 C 6578,1764 6593,1779 6612,1779 6631,1779 6646,1764 6646,1746 6646,1727 6631,1712 6612,1712 6593,1712 6578,1727 6578,1746 Z M 6789,2186 C 6789,2186 6840,2268 6954,2268 7027,2268 7100,2231 7100,2157 7100,2087 7043,2061 6971,2045 6906,2031 6855,2017 6855,1970 6855,1930 6894,1904 6946,1904 7016,1904 7056,1947 7056,1947 L 7084,1915 C 7084,1915 7037,1861 6946,1861 6862,1861 6810,1915 6810,1970 6810,2034 6863,2066 6947,2085 7007,2099 7055,2112 7055,2157 7055,2208 6996,2225 6954,2225 6863,2225 6824,2156 6824,2156 L 6789,2186 Z M 7218,2186 C 7218,2186 7269,2268 7383,2268 7456,2268 7530,2231 7530,2157 7530,2087 7472,2061 7400,2045 7335,2031 7284,2017 7284,1970 7284,1930 7323,1904 7376,1904 7445,1904 7485,1947 7485,1947 L 7514,1915 C 7514,1915 7466,1861 7376,1861 7291,1861 7239,1915 7239,1970 7239,2034 7292,2066 7376,2085 7437,2099 7484,2112 7484,2157 7484,2208 7426,2225 7383,2225 7292,2225 7253,2156 7253,2156 L 7218,2186 Z M 7837,1861 C 7722,1861 7647,1955 7647,2064 7647,2175 7730,2268 7845,2268 7908,2268 7969,2234 8006,2189 L 7977,2159 C 7950,2192 7904,2225 7845,2225 7742,2225 7694,2141 7691,2082 L 8023,2082 C 8024,2072 8024,2072 8024,2064 8024,1945 7939,1861 7837,1861 Z M 7692,2041 C 7694,1999 7730,1904 7837,1904 7939,1904 7977,1997 7978,2041 L 7692,2041 Z M 8338,1861 C 8243,1861 8206,1941 8206,1941 L 8206,1871 8166,1871 8166,2258 8210,2258 8210,1990 C 8210,1990 8244,1904 8330,1904 8392,1904 8439,1938 8439,2017 L 8439,2258 8483,2258 8483,2011 C 8483,1906 8410,1861 8338,1861 Z M 8626,2186 C 8626,2186 8677,2268 8791,2268 8864,2268 8938,2231 8938,2157 8938,2087 8880,2061 8808,2045 8743,2031 8692,2017 8692,1970 8692,1930 8731,1904 8784,1904 8853,1904 8893,1947 8893,1947 L 8922,1915 C 8922,1915 8874,1861 8784,1861 8699,1861 8647,1915 8647,1970 8647,2034 8700,2066 8784,2085 8845,2099 8892,2112 8892,2157 8892,2208 8834,2225 8791,2225 8700,2225 8661,2156 8661,2156 L 8626,2186 Z M 9253,2225 C 9161,2225 9100,2150 9100,2064 9100,1978 9161,1904 9253,1904 9335,1904 9376,1961 9376,1961 L 9408,1934 C 9408,1934 9354,1861 9253,1861 9138,1861 9055,1952 9055,2064 9055,2177 9138,2268 9253,2268 9358,2268 9412,2189 9412,2189 L 9381,2161 C 9381,2161 9339,2225 9253,2225 Z M 9600,1934 L 9600,1617 9556,1617 9556,2258 9600,2258 9600,1990 C 9600,1990 9634,1904 9719,1904 9782,1904 9828,1938 9828,2017 L 9828,2258 9872,2258 9872,2011 C 9872,1906 9800,1861 9728,1861 9637,1861 9600,1934 9600,1934 Z M 10192,1861 C 10111,1861 10048,1901 10048,1901 L 10067,1939 C 10067,1939 10123,1904 10193,1904 10236,1904 10307,1920 10307,2014 L 10307,2043 C 10307,2043 10257,2006 10178,2006 10103,2006 10025,2052 10025,2137 10025,2223 10100,2268 10165,2268 10260,2268 10311,2191 10311,2191 L 10311,2258 10351,2258 10351,2004 C 10351,1925 10300,1861 10192,1861 Z M 10175,2225 C 10126,2225 10071,2199 10071,2137 10071,2076 10133,2049 10184,2049 10261,2049 10307,2081 10307,2081 L 10307,2147 C 10307,2147 10260,2225 10175,2225 Z M 10482,1911 L 10565,1911 10565,2258 10609,2258 10609,1911 10711,1911 10711,1871 10609,1871 10609,1731 C 10609,1684 10627,1650 10677,1650 10703,1650 10726,1663 10726,1663 L 10744,1625 C 10714,1609 10694,1607 10671,1607 10618,1607 10565,1646 10565,1719 L 10565,1871 10482,1871 10482,1911 Z M 10810,1911 L 10894,1911 10894,2154 C 10894,2217 10929,2268 11004,2268 11043,2268 11081,2245 11081,2245 L 11064,2207 C 11064,2207 11037,2225 11006,2225 10954,2225 10938,2189 10938,2145 L 10938,1911 11070,1911 11070,1871 10938,1871 10938,1746 10894,1746 10894,1871 10810,1871 10810,1911 Z"/>
       </g>
      </g>
      <g class="com.sun.star.drawing.ClosedBezierShape">
       <g id="id5">
        <rect class="BoundingBox" stroke="none" fill="none" x="2193" y="559" width="7606" height="652"/>
        <path fill="rgb(35,31,32)" stroke="none" d="M 2194,1200 L 2379,1200 C 2496,1200 2572,1134 2572,1030 2572,912 2482,885 2473,884 2482,882 2540,848 2540,768 2540,669 2472,606 2350,606 L 2194,606 2194,1200 Z M 2379,1132 L 2265,1132 2265,928 2379,928 C 2464,928 2501,973 2501,1030 2501,1086 2464,1132 2379,1132 Z M 2265,862 L 2265,674 2362,674 C 2428,674 2469,710 2469,768 2469,825 2428,862 2362,862 L 2265,862 Z M 2853,1210 C 2938,1210 2974,1139 2974,1139 L 2974,1200 3040,1200 3040,807 2969,807 2969,1079 C 2969,1079 2937,1144 2871,1144 2819,1144 2777,1115 2777,1048 L 2777,807 2706,807 2706,1060 C 2706,1156 2776,1210 2853,1210 Z M 3385,797 C 3300,797 3265,862 3265,862 L 3265,807 3199,807 3199,1200 3270,1200 3270,929 C 3270,929 3304,863 3367,863 3420,863 3461,892 3461,959 L 3461,1200 3532,1200 3532,947 C 3532,851 3463,797 3385,797 Z M 3855,797 C 3748,797 3665,888 3665,1004 3665,1119 3748,1210 3855,1210 3949,1210 3987,1143 3987,1143 L 3987,1200 4052,1200 4052,559 3981,559 3981,856 C 3981,856 3942,797 3855,797 Z M 3981,1076 C 3981,1076 3944,1144 3866,1144 3786,1144 3736,1081 3736,1004 3736,926 3787,863 3866,863 3944,863 3981,931 3981,931 L 3981,1076 Z M 4395,797 C 4278,797 4200,889 4200,1004 4200,1120 4285,1210 4404,1210 4507,1210 4566,1133 4566,1133 L 4522,1086 C 4522,1086 4481,1144 4404,1144 4330,1144 4273,1089 4269,1029 L 4585,1029 C 4586,1020 4586,1014 4586,1007 4586,879 4505,797 4395,797 Z M 4271,969 C 4276,929 4311,863 4395,863 4474,863 4514,925 4516,969 L 4271,969 Z M 4693,1128 C 4693,1128 4750,1210 4860,1210 4936,1210 5015,1171 5015,1095 5015,1016 4952,988 4877,971 4813,957 4782,941 4782,912 4782,886 4807,862 4857,862 4916,862 4955,905 4955,905 L 5002,857 C 5002,857 4949,797 4857,797 4770,797 4713,853 4713,910 4713,985 4772,1018 4856,1034 4916,1046 4945,1063 4945,1097 4945,1128 4900,1145 4860,1145 4783,1145 4742,1082 4742,1082 L 4693,1128 Z M 5567,797 C 5482,797 5450,870 5450,870 5450,870 5426,797 5328,797 5249,797 5220,865 5220,865 L 5220,807 5154,807 5154,1200 5225,1200 5225,926 C 5225,926 5251,863 5309,863 5360,863 5393,895 5393,958 L 5393,1200 5464,1200 5464,926 C 5464,926 5489,863 5548,863 5598,863 5632,895 5632,958 L 5632,1200 5703,1200 5703,947 C 5703,851 5648,797 5567,797 Z M 5874,1200 L 5946,1200 5946,807 5874,807 5874,1200 Z M 5862,682 C 5862,708 5884,730 5910,730 5936,730 5958,708 5958,682 5958,656 5936,634 5910,634 5884,634 5862,656 5862,682 Z M 6304,797 C 6219,797 6184,862 6184,862 L 6184,807 6117,807 6117,1200 6189,1200 6189,929 C 6189,929 6222,863 6286,863 6338,863 6380,892 6380,959 L 6380,1200 6451,1200 6451,947 C 6451,851 6382,797 6304,797 Z M 6623,1200 L 6694,1200 6694,807 6623,807 6623,1200 Z M 6610,682 C 6610,708 6632,730 6658,730 6685,730 6707,708 6707,682 6707,656 6685,634 6658,634 6632,634 6610,656 6610,682 Z M 6841,1128 C 6841,1128 6898,1210 7008,1210 7083,1210 7163,1171 7163,1095 7163,1016 7100,988 7025,971 6961,957 6930,941 6930,912 6930,886 6955,862 7005,862 7064,862 7103,905 7103,905 L 7150,857 C 7150,857 7097,797 7005,797 6918,797 6861,853 6861,910 6861,985 6920,1018 7004,1034 7064,1046 7093,1063 7093,1097 7093,1128 7048,1145 7008,1145 6931,1145 6890,1082 6890,1082 L 6841,1128 Z M 7268,872 L 7344,872 7344,1087 C 7344,1173 7406,1210 7462,1210 7485,1210 7509,1205 7543,1186 L 7517,1128 C 7517,1128 7494,1144 7472,1144 7434,1144 7415,1122 7415,1084 L 7415,872 7537,872 7537,807 7415,807 7415,688 7344,688 7344,807 7268,807 7268,872 Z M 7840,797 C 7722,797 7644,889 7644,1004 7644,1120 7729,1210 7848,1210 7951,1210 8011,1133 8011,1133 L 7966,1086 C 7966,1086 7925,1144 7848,1144 7774,1144 7718,1089 7713,1029 L 8029,1029 C 8030,1020 8030,1014 8030,1007 8030,879 7949,797 7840,797 Z M 7715,969 C 7720,929 7755,863 7840,863 7918,863 7958,925 7961,969 L 7715,969 Z M 8337,797 C 8263,797 8228,868 8228,868 L 8228,807 8162,807 8162,1200 8233,1200 8233,929 C 8233,929 8261,863 8323,863 8353,863 8368,872 8368,872 L 8394,807 C 8394,807 8370,797 8337,797 Z M 8513,1200 L 8585,1200 8585,807 8513,807 8513,1200 Z M 8501,682 C 8501,708 8523,730 8549,730 8575,730 8597,708 8597,682 8597,656 8575,634 8549,634 8523,634 8501,656 8501,682 Z M 8904,1210 C 8988,1210 9024,1139 9024,1139 L 9024,1200 9090,1200 9090,807 9019,807 9019,1079 C 9019,1079 8988,1144 8922,1144 8869,1144 8828,1115 8828,1048 L 8828,807 8756,807 8756,1060 C 8756,1156 8826,1210 8904,1210 Z M 9662,797 C 9577,797 9546,870 9546,870 9546,870 9521,797 9424,797 9344,797 9315,865 9315,865 L 9315,807 9249,807 9249,1200 9320,1200 9320,926 C 9320,926 9347,863 9404,863 9455,863 9488,895 9488,958 L 9488,1200 9559,1200 9559,926 C 9559,926 9584,863 9643,863 9694,863 9727,895 9727,958 L 9727,1200 9798,1200 9798,947 C 9798,851 9744,797 9662,797 Z"/>
       </g>
      </g>
      <g class="com.sun.star.drawing.PolyPolygonShape">
       <g id="id6">
        <rect class="BoundingBox" stroke="none" fill="none" x="600" y="599" width="926" height="202"/>
        <path fill="rgb(35,31,32)" stroke="none" d="M 1525,800 L 1525,599 600,599 693,800 1525,800 Z"/>
       </g>
      </g>
      <g class="com.sun.star.drawing.PolyPolygonShape">
       <g id="id7">
        <rect class="BoundingBox" stroke="none" fill="none" x="786" y="998" width="740" height="203"/>
        <path fill="rgb(35,31,32)" stroke="none" d="M 879,1200 L 1525,1200 1525,999 786,999 879,1200 Z"/>
       </g>
      </g>
     </g>
    </g>
   </g>
  </g>
 </g>
</svg>